<svg t="1719998368651" class="icon" viewBox="0 0 1024 1024" version="1.1" xmlns="http://www.w3.org/2000/svg" p-id="1039" width="32" height="32"><path d="M102.4 409.6a409.6 409.6 0 0 0 409.6 409.6c2.1504 0 4.608-0.512 6.656-0.512 2.048 0 3.9936 0.512 6.144 0.512H768a153.6 153.6 0 0 1 153.6 153.6 51.2 51.2 0 1 0 102.4 0 256 256 0 0 0-256-256h-243.2c-2.1504 0-4.096 0.512-6.144 0.512-2.048 0-4.5056-0.512-6.656-0.512a307.2 307.2 0 1 1 307.2-307.2 300.0832 300.0832 0 0 1-58.88 180.736 49.408 49.408 0 0 0-9.728 30.208 51.2 51.2 0 0 0 51.2 51.2 50.5856 50.5856 0 0 0 41.472-21.504A398.7456 398.7456 0 0 0 921.6 409.6 409.6 409.6 0 1 0 102.4 409.6zM0 921.6v51.2a51.2 51.2 0 1 0 102.4 0v-51.2a102.4 102.4 0 0 1 102.4-102.4 51.2 51.2 0 1 0 0-102.4 204.8 204.8 0 0 0-204.8 204.8z" fill="#000000" p-id="1040"></path><path d="M641.4336 550.2976a153.4464 153.4464 0 0 1-217.088-2.56 50.944 50.944 0 0 1 0.512-72.192 51.5584 51.5584 0 0 1 72.704 0.512 50.944 50.944 0 0 0 72.192 1.024 50.944 50.944 0 0 1 72.192 0.512 51.5584 51.5584 0 0 1-0.512 72.704z" fill="#0088FF" p-id="1041"></path><path d="M409.6 936.2432L512 1024l102.4-87.7568L568.6784 716.8H455.3216L409.6 936.2432z" fill="#0088FF" p-id="1042"></path></svg>