<?xml version="1.0" standalone="no"?><!DOCTYPE svg PUBLIC "-//W3C//DTD SVG 1.1//EN" "http://www.w3.org/Graphics/SVG/1.1/DTD/svg11.dtd"><svg t="1720015506496" class="icon" viewBox="0 0 1024 1024" version="1.1" xmlns="http://www.w3.org/2000/svg" p-id="892" xmlns:xlink="http://www.w3.org/1999/xlink" width="32" height="32"><path d="M452.266667 119.466667a99.555556 99.555556 0 0 1 119.466666 0l284.444445 213.333333c25.031111 18.773333 39.822222 48.355556 39.822222 79.644444v426.666667A99.555556 99.555556 0 0 1 796.444444 938.666667H227.555556a99.555556 99.555556 0 0 1-99.555556-99.555556v-426.666667c0-31.288889 14.791111-60.871111 39.822222-79.644444l284.444445-213.333333z m68.266666 68.266666a14.222222 14.222222 0 0 0-17.066666 0l-284.444445 213.333334a14.222222 14.222222 0 0 0-5.688889 11.377777v426.666667c0 7.850667 6.371556 14.222222 14.222223 14.222222h568.888888a14.222222 14.222222 0 0 0 14.222223-14.222222v-426.666667a14.222222 14.222222 0 0 0-5.688889-11.377777l-284.444445-213.333334z" p-id="893"></path><path d="M455.111111 668.444444a14.222222 14.222222 0 0 0-14.222222 14.222223v227.555555h-85.333333v-227.555555c0-54.954667 44.600889-99.555556 99.555555-99.555556h113.777778c54.954667 0 99.555556 44.600889 99.555555 99.555556v227.555555h-85.333333v-227.555555a14.222222 14.222222 0 0 0-14.222222-14.222223H455.111111z" p-id="894"></path></svg>