<?xml version="1.0" standalone="no"?><!DOCTYPE svg PUBLIC "-//W3C//DTD SVG 1.1//EN" "http://www.w3.org/Graphics/SVG/1.1/DTD/svg11.dtd"><svg t="1720287347323" class="icon" viewBox="0 0 1024 1024" version="1.1" xmlns="http://www.w3.org/2000/svg" p-id="4857" xmlns:xlink="http://www.w3.org/1999/xlink" width="32" height="32"><path d="M846.848 754.688H175.872c-57.856 0-104.96-47.104-104.96-104.96V181.76c0-57.856 47.104-104.96 104.96-104.96h670.976c57.856 0 104.96 47.104 104.96 104.96v468.224c0 57.6-47.104 104.704-104.96 104.704zM175.872 138.24c-24.064 0-43.52 19.456-43.52 43.52v468.224c0 24.064 19.456 43.52 43.52 43.52h670.976c24.064 0 43.52-19.456 43.52-43.52V181.76c0-24.064-19.456-43.52-43.52-43.52H175.872zM817.152 946.432H206.592c-16.896 0-30.72-13.824-30.72-30.72s13.824-30.72 30.72-30.72h610.56c16.896 0 30.72 13.824 30.72 30.72s-13.568 30.72-30.72 30.72z" fill="#060001" p-id="4858"></path><path d="M328.448 609.28c-16.896 0-30.72-13.824-30.72-30.72v-173.056c0-16.896 13.824-30.72 30.72-30.72s30.72 13.824 30.72 30.72V578.56c0 16.896-13.824 30.72-30.72 30.72zM508.672 609.28c-16.896 0-30.72-13.824-30.72-30.72v-238.592c0-16.896 13.824-30.72 30.72-30.72s30.72 13.824 30.72 30.72V578.56c0 16.896-13.824 30.72-30.72 30.72zM688.64 609.28c-16.896 0-30.72-13.824-30.72-30.72V269.568c0-16.896 13.824-30.72 30.72-30.72s30.72 13.824 30.72 30.72V578.56c0 16.896-13.568 30.72-30.72 30.72z" fill="#060001" p-id="4859"></path></svg>