<?xml version="1.0" standalone="no"?><!DOCTYPE svg PUBLIC "-//W3C//DTD SVG 1.1//EN" "http://www.w3.org/Graphics/SVG/1.1/DTD/svg11.dtd"><svg t="1720014770025" class="icon" viewBox="0 0 1024 1024" version="1.1" xmlns="http://www.w3.org/2000/svg" p-id="1223" xmlns:xlink="http://www.w3.org/1999/xlink" width="32" height="32"><path d="M213.333333 277.333333a192 192 0 1 1 384 0 192 192 0 0 1-384 0zM405.333333 170.666667a106.666667 106.666667 0 1 0 0 213.333333 106.666667 106.666667 0 0 0 0-213.333333zM659.057778 127.317333a42.666667 42.666667 0 0 1 58.595555-14.506666 191.943111 191.943111 0 0 1 0 329.045333 42.666667 42.666667 0 1 1-44.032-73.045333 106.609778 106.609778 0 0 0 0-182.897778 42.666667 42.666667 0 0 1-14.563555-58.595556zM356.579556 554.666667h97.507555c46.250667 0 83.569778 0 113.777778 2.446222 31.061333 2.56 58.368 7.964444 83.626667 20.821333a213.333333 213.333333 0 0 1 93.297777 93.184c12.856889 25.315556 18.204444 52.622222 20.764445 83.683556 2.446222 30.208 2.446222 67.527111 2.446222 113.777778v1.820444a68.266667 68.266667 0 0 1-68.266667 68.266667H110.933333a68.266667 68.266667 0 0 1-68.266666-68.266667v-1.820444c0-46.250667 0-83.569778 2.446222-113.777778 2.56-31.061333 7.964444-58.368 20.821333-83.626667a213.333333 213.333333 0 0 1 93.240889-93.297778c25.258667-12.856889 52.565333-18.204444 83.626667-20.764444 30.208-2.446222 67.527111-2.446222 113.777778-2.446222z m-158.72 99.271111a128 128 0 0 0-55.921778 55.978666c-5.688889 11.207111-9.671111 26.055111-11.776 51.882667-1.877333 23.096889-2.104889 51.996444-2.161778 91.534222H682.666667c0-39.537778-0.284444-68.437333-2.161778-91.591111-2.104889-25.770667-6.087111-40.618667-11.776-51.882666a128 128 0 0 0-55.978667-55.921778m-414.890666 0c11.264-5.688889 26.112-9.671111 51.939555-11.776 26.282667-2.104889 60.131556-2.161778 108.600889-2.161778h93.866667c48.469333 0 82.318222 0 108.657777 2.161778 25.770667 2.104889 40.618667 6.087111 51.882667 11.776M787.854222 576.170667a42.666667 42.666667 0 0 1 58.197334-15.872c36.238222 20.707556 89.258667 58.140444 123.392 118.442666 35.271111 62.407111 47.445333 144.384 9.159111 246.499556a42.666667 42.666667 0 0 1-79.872-29.980445c29.980444-79.985778 18.488889-135.452444-3.584-174.535111-23.324444-41.130667-61.269333-69.12-91.420445-86.357333a42.666667 42.666667 0 0 1-15.928889-58.197333z" p-id="1224"></path></svg>