<?xml version="1.0" standalone="no"?><!DOCTYPE svg PUBLIC "-//W3C//DTD SVG 1.1//EN" "http://www.w3.org/Graphics/SVG/1.1/DTD/svg11.dtd"><svg t="1720014790734" class="icon" viewBox="0 0 1024 1024" version="1.1" xmlns="http://www.w3.org/2000/svg" p-id="1553" xmlns:xlink="http://www.w3.org/1999/xlink" width="32" height="32"><path d="M373.987556 942.136889a373.418667 373.418667 0 0 0 446.350222-366.307556v-42.666666H489.472V202.353778h-42.666667a373.475556 373.475556 0 0 0-72.817777 739.783111z m183.125333-100.124445a288.199111 288.199111 0 1 1-152.974222-551.139555v327.68h327.68a288.142222 288.142222 0 0 1-174.705778 223.516444z" p-id="1554"></path><path d="M534.528 490.951111h416.142222v-42.666667a373.475556 373.475556 0 0 0-373.475555-373.475555h-42.666667V490.951111z m85.333333-85.333333V163.271111a288.199111 288.199111 0 0 1 242.346667 242.346667h-242.346667z" p-id="1555"></path></svg>