<?xml version="1.0" standalone="no"?><!DOCTYPE svg PUBLIC "-//W3C//DTD SVG 1.1//EN" "http://www.w3.org/Graphics/SVG/1.1/DTD/svg11.dtd"><svg t="1720014810730" class="icon" viewBox="0 0 1024 1024" version="1.1" xmlns="http://www.w3.org/2000/svg" p-id="1718" xmlns:xlink="http://www.w3.org/1999/xlink" width="32" height="32"><path d="M128 512A384 384 0 1 1 512 896H128V512zM42.666667 512v469.333333H512A469.333333 469.333333 0 1 0 42.666667 512z m256-170.666667a42.666667 42.666667 0 0 0 0 85.333334h227.555555a42.666667 42.666667 0 0 0 0-85.333334h-227.555555zM256 554.666667A42.666667 42.666667 0 0 1 298.666667 512H682.666667a42.666667 42.666667 0 0 1 0 85.333333H298.666667a42.666667 42.666667 0 0 1-42.666667-42.666666zM298.666667 682.666667a42.666667 42.666667 0 0 0 0 85.333333H512A42.666667 42.666667 0 0 0 512 682.666667H298.666667z" p-id="1719"></path></svg>