<?xml version="1.0" standalone="no"?><!DOCTYPE svg PUBLIC "-//W3C//DTD SVG 1.1//EN" "http://www.w3.org/Graphics/SVG/1.1/DTD/svg11.dtd"><svg t="1720015205715" class="icon" viewBox="0 0 1024 1024" version="1.1" xmlns="http://www.w3.org/2000/svg" p-id="1882" xmlns:xlink="http://www.w3.org/1999/xlink" width="32" height="32"><path d="M461.539556 65.536a99.555556 99.555556 0 0 1 100.920888 0l305.777778 179.825778c30.435556 17.92 49.095111 50.574222 49.095111 85.845333v361.585778a99.555556 99.555556 0 0 1-49.095111 85.788444l-305.777778 179.882667a99.555556 99.555556 0 0 1-100.920888 0l-305.777778-179.882667a99.555556 99.555556 0 0 1-49.095111-85.788444V331.207111c0-35.271111 18.659556-67.925333 49.095111-85.845333l305.777778-179.825778z m57.685333 73.557333a14.222222 14.222222 0 0 0-14.449778 0L198.997333 318.919111a14.222222 14.222222 0 0 0-6.997333 12.288v361.585778c0 5.063111 2.673778 9.671111 6.997333 12.231111l305.777778 179.882667a14.222222 14.222222 0 0 0 14.449778 0l305.777778-179.882667a14.222222 14.222222 0 0 0 6.997333-12.231111V331.207111a14.222222 14.222222 0 0 0-6.997333-12.288L519.224889 139.093333z m199.509333 243.655111a42.666667 42.666667 0 0 1-13.539555 58.766223l-140.515556 87.836444a99.669333 99.669333 0 0 1-10.012444 5.518222v169.130667a42.666667 42.666667 0 0 1-85.333334 0V534.983111a99.783111 99.783111 0 0 1-10.24-5.632L318.634667 441.514667a42.666667 42.666667 0 1 1 45.283555-72.362667l140.344889 87.836444a14.222222 14.222222 0 0 0 15.075556 0L659.911111 369.208889a42.666667 42.666667 0 0 1 58.823111 13.596444z" p-id="1883"></path></svg>