<?xml version="1.0" standalone="no"?><!DOCTYPE svg PUBLIC "-//W3C//DTD SVG 1.1//EN" "http://www.w3.org/Graphics/SVG/1.1/DTD/svg11.dtd"><svg t="1720014758848" class="icon" viewBox="0 0 1024 1024" version="1.1" xmlns="http://www.w3.org/2000/svg" p-id="1059" xmlns:xlink="http://www.w3.org/1999/xlink" width="32" height="32"><path d="M128 128a85.333333 85.333333 0 0 1 85.333333-85.333333h403.114667c26.396444 0 51.712 10.467556 70.371556 29.184l179.996444 179.996444c18.716444 18.659556 29.184 43.975111 29.184 70.371556V896a85.333333 85.333333 0 0 1-85.333333 85.333333H213.333333a85.333333 85.333333 0 0 1-85.333333-85.333333V128z m488.448 0H213.333333v768h597.333334V322.218667a14.222222 14.222222 0 0 0-4.152889-10.069334l-179.996445-179.996444a14.222222 14.222222 0 0 0-10.069333-4.152889zM298.666667 455.111111A42.666667 42.666667 0 0 1 341.333333 412.444444h341.333334a42.666667 42.666667 0 0 1 0 85.333334H341.333333A42.666667 42.666667 0 0 1 298.666667 455.111111zM341.333333 583.111111a42.666667 42.666667 0 0 0 0 85.333333h341.333334a42.666667 42.666667 0 0 0 0-85.333333H341.333333z" p-id="1060"></path></svg>