<?xml version="1.0" standalone="no"?><!DOCTYPE svg PUBLIC "-//W3C//DTD SVG 1.1//EN" "http://www.w3.org/Graphics/SVG/1.1/DTD/svg11.dtd"><svg t="1720174860183" class="icon" viewBox="0 0 1024 1024" version="1.1" xmlns="http://www.w3.org/2000/svg" p-id="10256" xmlns:xlink="http://www.w3.org/1999/xlink" width="32" height="32"><path d="M437.232444 617.875516s-97.783426-211.470478-325.982441-24.001996c0 0 158.596577 173.344489 328.825664 26.497667" fill="#AED98E" p-id="10257"></path><path d="M422.040671 624.897733c-170.086716 124.95526-287.889951-31.941246-287.88995-31.941246s215.029741 53.372197 239.894334 25.287517c24.864593-28.088867-58.225357-81.825365-58.225357-81.825365 73.09889 8.081621 106.220974 88.479094 106.220973 88.479094z" fill="#A1C983" p-id="10258"></path><path d="M429.142448 607.687648c-155.665419 134.276342-299.488961-18.575166-305.527146-25.12421l-1.725196 24.244863c72.370288-59.456444 137.622049-83.131824 193.933779-70.385475 71.658435 16.226052 105.898546 87.792365 106.237723 88.512593l-0.016749-0.029312 30.408669-14.056995c-1.641448-3.546701-41.103208-86.92558-128.849512-107.008199-67.018831-15.342518-142.04391 10.594042-222.981554 77.085264l-13.650821 11.21796 11.929813 13.03109c1.691697 1.855004 171.656979 183.544918 352.119994 27.879499l-21.879-25.367078z" fill="#6E6E96" p-id="10259"></path><path d="M659.996254 401.053581c-24.135991-9.513701-42.995899-25.178646-48.154736-40.709595-18.830596-56.625783 38.088303-101.602306 67.83118-117.367748 49.381635-26.141741 98.729772-3.056779 111.744113 46.081989" fill="#FFA6A6" p-id="10260"></path><path d="M665.360273 387.448821c-23.139398-9.120088-36.585038-22.502918-39.650191-31.71094-18.893406-56.822589 57.538629-98.114228 60.804776-99.843612 19.722505-10.439109 40.047991-12.047059 57.245513-4.522358 16.443796 7.193899 28.352671 21.912499 33.524072 41.438198l28.268923-7.49539c-7.403267-27.90881-25.647631-50.047427-50.072551-60.733591-25.526198-11.167711-54.871275-9.224773-82.646089 5.472891-37.807749 20.040745-96.112666 71.005206-74.874334 134.908634 6.544857 19.709943 27.732941 38.289296 56.671843 49.699875l10.728038-27.213707zM639.419526 503.627357c-7.47864 4.710789-183.55748 117.648302-210.955431 314.010755a14.618103 14.618103 0 1 0 28.959839 4.028248c25.492699-182.657196 195.864156-292.215502 197.589352-293.304218h-0.008375a14.62229 14.62229 0 0 0 4.585169-20.162179 14.63904 14.63904 0 0 0-20.170554-4.572606z" fill="#6E6E96" p-id="10261"></path><path d="M795.235691 344.884222c21.347204-14.739537 44.859277-21.686381 60.633094-17.318956 57.509317 15.907812 63.162265 88.232039 59.686749 121.714237-5.799505 55.57894-52.450976 83.688744-100.521966 67.13189" fill="#FFA6A6" p-id="10262"></path><path d="M850.136278 326.497487c-15.773817-4.363238-39.290077 2.579419-60.628907 17.318956l19.802065 171.518796c48.066802 16.569417 94.72246-11.548762 100.526153-67.123515 3.471328-33.482198-2.177432-105.806424-59.699311-121.714237z m-12.725413 159.011127l-9.145212-63.966239s22.000433-14.613916 21.929248-54.825215c0.008375-0.004187 56.659282 73.103077-12.784036 118.791454z" fill="#E68A8A" opacity=".56" p-id="10263"></path><path d="M803.54343 356.918718c20.467857-14.132368 39.068147-17.850751 48.41854-15.262957 57.714498 15.966436 49.436071 102.43978 49.050833 106.112102-2.319802 22.193052-12.302488 39.968431-28.126553 50.059989-15.141524 9.651884-33.997244 11.339394-53.095831 4.761038l-9.517888 27.65338c27.301642 9.404829 55.842745 6.578356 78.328912-7.759193 23.495324-14.974029 38.234861-40.433229 41.496821-71.687747 4.413486-42.568787-5.435204-119.373498-70.339414-137.324746-20.011433-5.539888-47.24189 1.704259-72.84346 19.379141l16.62804 24.068993z" fill="#6E6E96" p-id="10264"></path><path d="M788.912765 401.656562c16.15068 36.02393 24.58404 112.70302 15.618884 130.880386-26.275737 53.313574-76.875896 44.809029-131.2405 18.018246-54.377166-26.799158-106.292159-93.596058-67.253324-138.413461 13.558699-15.551886 52.840402-30.178364 94.814583-31.338265" fill="#FFA6A6" p-id="10265"></path><path d="M788.912765 401.656562l-88.051983-20.853094c-41.965806 1.159901-81.247509 15.786379-94.810395 31.338265-39.043023 44.821591 12.863596 111.610117 67.249137 138.413461 54.356229 26.790783 104.956388 35.303703 131.244687-18.018246 8.952594-18.177366 0.523421-94.856456-15.631446-130.880386z m-108.440279 105.027574c-93.081012-58.970709 9.141025-85.903862 9.141025-85.903862 26.815907 26.824282 74.937144 23.759128 74.937144 23.759128s9.011217 121.111256-84.078169 62.144734z" fill="#E68A8A" opacity=".56" p-id="10266"></path><path d="M775.575996 407.640312c16.104619 35.915059 21.355579 107.251066 15.845002 118.422965-7.390705 14.982404-16.883469 24.278362-29.047774 28.402919-19.153023 6.502983-46.178298 0.937971-82.616778-17.030027-35.802-17.649758-65.955239-51.236639-71.704496-79.869864-2.792975-13.927187 0.154933-25.643444 9.019591-35.818749 10.305114-11.825128 45.424572-25.258206 84.182854-26.330173l-0.808162-29.232018c-43.787311 1.210149-88.131542 16.494044-105.429561 36.350545-14.802347 16.996528-20.20824 38.01293-15.635634 60.783839 8.764162 43.640753 51.471132 82.612591 87.444814 100.333534 44.360981 21.874812 77.71337 27.74969 104.948014 18.491418 19.609446-6.649541 35.035711-21.167147 45.87262-43.150831 12.118244-24.558916 1.164088-106.396843-15.392766-143.329432l-26.677724 11.975874z" fill="#6E6E96" p-id="10267"></path><path d="M811.051381 379.647754c-17.674882 32.92109-55.051332 33.595256-90.489031 14.55948-35.433511-19.031589-55.520317-50.558286-37.845435-83.471001 17.683257-32.92109 60.737778-44.168362 96.179664-25.132585 35.437699 19.035777 49.825496 61.135578 32.154802 94.044106z" fill="#FFFFFF" p-id="10268"></path><path d="M798.175223 372.730221c-4.974594 9.258271-11.77488 15.082901-20.777722 17.792129-13.554511 4.082684-31.283829 0.816537-49.913431-9.195461-12.038684-6.465297-49.888307-30.149052-31.88681-63.673124 6.255928-11.653446 17.004903-20.27105 30.249549-24.261612 14.919594-4.493046 31.731878-2.638042 46.132238 5.09184 28.260549 15.187585 40.014492 48.493913 26.196176 74.246228z m-12.365298-100.011106c-21.171335-11.372893-46.107113-14.044434-68.400663-7.327895-20.723286 6.243366-37.623505 19.89-47.572692 38.42748-20.183116 37.598381-2.993968 78.132107 43.812435 103.264692 25.509448 13.709444 51.148705 17.771191 72.181856 11.43989 16.347486-4.924345 29.520947-15.966436 38.113427-31.957995 21.443513-39.960056 4.342301-91.029201-38.134363-113.846172z" fill="#6E6E96" p-id="10269"></path><path d="M242.871553 163.152434c-30.023431-28.034431-36.317046-83.366317 79.003079-111.312813 58.175109-14.103057 145.113251 28.415482 119.277189 65.76262" fill="#FFDD5F" p-id="10270"></path><path d="M252.850052 152.46627c-5.368206-5.008093-17.394328-18.44117-13.098088-34.805406 3.232648-12.31505 18.646351-35.391638 85.564685-51.605128 37.414136-9.065653 88.738711 9.13265 102.950639 29.843375 4.652166 6.775162 2.885097 10.468421 0.858411 13.399578l24.043869 16.632228c9.953375-14.379423 9.656071-31.359202-0.7956-46.584474-22.440107-32.68241-87.536936-52.957648-133.94554-41.706189-77.587749 18.797097-100.990951 49.850621-106.95795 72.592219-5.757632 21.925061 2.252804 45.705126 21.422576 63.601938l19.956998-21.368141z" fill="#6E6E96" p-id="10271"></path><path d="M378.764219 147.860165c14.015122-16.757848 30.915341-31.099585 45.462259-39.972619 86.682713-52.873901 154.626952 6.716539 163.156621 79.195698 6.264303 53.259138-38.787593 113.745675-92.792083 118.309907" fill="#FFDD5F" p-id="10272"></path><path d="M438.501217 189.356985s73.232886 18.215052 89.29563 46.915276c0 0 74.392787-117.85767-41.65594-133.903666 0 0 59.808183-5.992124 84.103293 72.106483 24.295111 78.090233-40.596536 102.548652-40.596536 102.548652s-57.865244-39.943307-90.631401-57.153391l-0.515046-30.513354z" fill="#FFCA5F" p-id="10273"></path><path d="M389.982179 157.23987c12.109869-14.488295 27.758065-28.268924 41.856934-36.865591 32.385107-19.751817 63.447006-23.403202 89.848364-10.556356 27.402139 13.336768 47.011585 43.59888 51.173829 78.982142 2.654792 22.607602-5.845566 48.456227-22.741598 69.150202-15.644008 19.165585-36.333795 31.149833-56.763966 32.879216l2.470548 29.13571c28.273111-2.390987 56.315917-18.256926 76.947081-43.527695 21.79944-26.698661 32.694972-60.741966 29.127334-91.058513-5.317958-45.17333-31.145646-84.207978-67.41663-101.861923-35.291141-17.176585-77.152262-12.95153-117.87442 11.887939-16.916968 10.313488-34.801219 26.011932-49.07177 43.075459l22.444294 18.75941z" fill="#6E6E96" p-id="10274"></path><path d="M233.0438 395.748185c-66.244168 3.647198-146.549518-38.381419-134.00835-110.21991 7.5582-43.272265 40.420667-132.061224 118.293156-131.525241 21.355579 0.150745 48.401791 17.235208 69.945802 43.34345" fill="#FFDD5F" p-id="10275"></path><path d="M419.52825 228.538191c54.058926 16.979779 99.680304 50.466164 111.547307 75.657372 34.206612 72.592218-57.840119 140.193093-138.329715 154.961942-80.48122 14.768848-149.321556 7.139463-163.797289-71.788244-4.93272-26.899654 23.687943-86.075544 57.944804-126.902386" fill="#FFDD5F" p-id="10276"></path><path d="M528.106712 298.735235c-11.871189-25.191208-57.48838-58.673406-111.551493-75.657372L283.9287 255.010734c-34.261048 40.831029-62.885898 100.002732-57.948991 126.906574 14.47992 78.919332 83.311881 86.54453 163.797289 71.784056 80.485408-14.768848 172.532139-82.373911 138.329714-154.966129zM382.775718 400.216107c-56.173547 10.300926-98.872142 7.788505-108.980449-47.300513-1.708446-9.316895 5.41008-22.57829 15.928749-37.054023 26.6526 6.50717 91.71593 14.308238 152.96038-40.516976 16.527543 6.301989 29.269705 13.324206 33.591069 22.502918 23.893124 50.66297-37.317827 92.063481-93.499749 102.368594z" fill="#FFCA5F" p-id="10277"></path><path d="M142.981881 212.827185S90.179165 302.281936 175.186931 329.428645c0 0 16.192554-52.346292 80.887395-81.360568l9.982686 15.128962s-44.092989 75.297258-52.237421 117.698551c-0.004187 0-174.479266-9.794255-70.83771-168.068405z" fill="#FFCA5F" p-id="10278"></path><path d="M232.239825 381.151019c-39.432448 2.173244-80.782711-13.098088-102.904578-37.991993-14.153305-15.924562-19.500575-34.466229-15.899438-55.114143 0.854223-4.895034 21.895749-119.976479 103.788113-119.423746 16.477295 0.117246 40.094052 15.401141 58.769715 38.02968l22.553166-18.604478c-24.613351-29.835-55.700374-48.485538-81.121887-48.665595-84.919831-0.577857-123.431058 90.015858-132.798201 143.63511-5.142088 29.453949 2.759476 56.964959 22.842094 79.568374 28.160052 31.694191 77.763618 50.445227 126.378965 47.765311l-1.607949-29.19852z" fill="#6E6E96" p-id="10279"></path><path d="M415.15245 242.486315c51.257576 16.104619 93.219195 47.802997 102.699397 67.935865 8.374737 17.762817 7.851316 36.053242-1.553513 54.356229-18.675663 36.363107-71.74637 70.008612-126.186346 79.999673-55.34026 10.150181-93.742616 7.152025-117.39706-9.161962-15.443015-10.652665-25.053025-27.297454-29.378577-50.876526-3.458766-18.822221 19.718318-73.09889 54.762404-114.867889l-22.398234-18.797097c-34.943589 41.635004-67.362195 104.994075-61.127203 138.94107 5.71157 31.154021 19.693193 54.599096 41.534507 69.669435 30.785532 21.238332 75.033454 25.639257 139.276059 13.86019 52.074113-9.555575 120.26122-43.481633 146.922195-95.396627 13.579636-26.422294 14.266364-54.14686 2.005749-80.183917-14.597166-30.973964-65.230825-66.038987-120.40359-83.366317l-8.755788 27.887873z" fill="#6E6E96" p-id="10280"></path><path d="M328.00494 135.821481c44.130675-9.685383 87.214509 15.685882 96.21735 56.671843 9.002842 40.990149-22.364735 68.903147-66.499597 78.596905-44.13905 9.697945-84.329412-2.499859-93.332254-43.485821-9.002842-40.998524 19.47545-82.084982 63.614501-91.782927z" fill="#FFFFFF" p-id="10281"></path><path d="M331.141279 150.100407c36.191425-7.93925 71.541189 12.478358 78.802085 45.525069 2.600356 11.858627 0.937971 22.523855-4.941094 31.715128-8.835347 13.797379-26.736347 24.261612-50.42429 29.462324-23.687943 5.209086-44.335856 3.215899-58.137423-5.619448-9.187086-5.879065-15.170836-14.865158-17.775379-26.719598-7.252522-33.050899 16.288863-66.407475 52.476101-74.363475zM250.107326 230.73656c4.266928 19.425202 14.840034 35.010587 30.576164 45.081208 20.379922 13.043652 48.854027 16.431234 80.171355 9.5472 31.313141-6.871472 55.733873-21.883187 68.781713-42.263109 10.066434-15.73613 13.131587-34.323859 8.860471-53.744874-10.719663-48.791216-61.688311-79.216635-113.632615-67.81443-51.931743 11.414766-85.472563 60.398601-74.757088 109.194005z" fill="#6E6E96" p-id="10282"></path><path d="M281.571212 190.830939s2.897659 51.006334 54.741467 41.262328c51.835433-9.748194 61.491505-65.318759 34.449479-79.5265 0 0 48.962898 9.036341 40.131739 57.660062s-95.559934 84.132605-125.332123 36.379857c-29.772189-47.756936-3.990562-55.775747-3.990562-55.775747zM695.59726 317.653765s-13.278145 44.645722 61.64225 44.645722c74.924582 0 30.475667-53.803496 22.603415-58.811589 0 0 78.11117 69.975113-6.054935 93.633744-84.178667 23.662819-120.206784-66.97277-78.19073-79.467877z" fill="#6E6E96" opacity=".15" p-id="10283"></path><path d="M659.439334 944.440001c0 34.545789-28.264737 62.810526-62.810525 62.810525h-238.679998c-34.545789 0-62.810526-28.264737-62.810526-62.810525v-125.621052c0-34.545789 28.264737-62.810526 62.810526-62.810525h238.679998c34.545789 0 62.810526 28.264737 62.810525 62.810525v125.621052z" fill="#DBBEA9" p-id="10284"></path><path d="M312.101315 814.631581h330.588546v35.592631H312.101315zM595.581967 850.224212h51.035645v156.050658h-51.035645z" fill="#C4AA98" p-id="10285"></path><path d="M642.689861 944.440001c0 25.396389-20.66885 46.061052-46.061052 46.061052h-238.679998c-25.396389 0-46.061052-20.664663-46.061052-46.061052v-125.621052c0-25.396389 20.664663-46.061052 46.061052-46.061052h238.679998c25.392202 0 46.061052 20.664663 46.061052 46.061052v125.621052z m33.498947-125.621052c0-43.875246-35.688941-79.559999-79.559999-79.559999h-238.679998c-43.871058 0-79.559999 35.684753-79.559999 79.559999v125.621052c0 43.875246 35.688941 79.559999 79.559999 79.559999h238.679998c43.871058 0 79.559999-35.684753 79.559999-79.559999v-125.621052z" fill="#6E6E96" p-id="10286"></path><path d="M699.219334 776.945266c0 11.515263-9.421579 20.936842-20.936842 20.936842h-401.987364c-11.515263 0-20.936842-9.421579-20.936842-20.936842v-29.814063c0-11.515263 9.421579-20.936842 20.936842-20.936842h401.987364c11.515263 0 20.936842 9.421579 20.936842 20.936842v29.814063z" fill="#DBBEA9" p-id="10287"></path><path d="M682.46986 776.945266c0 2.269554-1.922002 4.187368-4.187368 4.187368h-401.987364c-2.269554 0-4.187368-1.917815-4.187369-4.187368v-29.814063c0-2.269554 1.917815-4.187368 4.187369-4.187369h401.987364c2.265366 0 4.187368 1.917815 4.187368 4.187369v29.814063z m33.498947-29.814063c0-20.781909-16.904406-37.686315-37.686315-37.686316h-401.987364c-20.777722 0-37.686315 16.904406-37.686316 37.686316v29.814063c0 20.781909 16.908594 37.686315 37.686316 37.686315h401.987364c20.781909 0 37.686315-16.904406 37.686315-37.686315v-29.814063z" fill="#6E6E96" p-id="10288"></path><path d="M352.714601 850.224212h129.808419v140.276841h-129.808419zM333.992877 742.943834h138.061722v38.1888H333.992877z" fill="#EDCEB7" p-id="10289"></path><path d="M568.364072 742.943834h130.423963v38.1888h-130.423963z" fill="#6E6E96" opacity=".15" p-id="10290"></path><path d="M352.714601 850.224212H401.221076v140.276841H352.714601z" fill="#FFFFFF" opacity=".39" p-id="10291"></path><path d="M526.377329 634.738048c58.229545 179.445484 247.465096 124.088475 247.465097 124.088475-82.147793-233.818463-244.337132-124.641207-244.337132-124.641207" fill="#AED98E" p-id="10292"></path><path d="M652.065379 628.586804s-83.002016 2.395175-77.382568 33.360764c5.619448 30.973964 183.126181 86.268163 183.126181 86.268163s-152.801259 61.298886-220.460758-102.372782c-0.004187-0.004187 58.748778-43.276452 114.717145-17.256145z" fill="#A1C983" p-id="10293"></path><path d="M513.007062 639.076162c61.734372 190.232145 262.753178 133.836668 264.779865 133.237874l14.22449-4.158057-4.91597-13.98581c-29.131522-82.930831-71.670997-134.196782-126.433401-152.349024-71.704496-23.784252-136.303028 18.868282-139.016443 20.689788l15.698444 23.323641-0.025124 0.01675c0.55692-0.368488 56.265669-36.81953 114.738081-17.272895 45.956368 15.363455 82.466033 60.746153 108.515651 134.90026l9.321082-18.143867c-7.185524 2.072747-176.899564 49.142955-230.150328-114.939075l-26.736347 8.680415z" fill="#6E6E96" p-id="10294"></path></svg>